<svg data-v-fde0c5aa="" xmlns="http://www.w3.org/2000/svg" viewBox="0 0 300 300" class="font"><!----><defs data-v-fde0c5aa=""><!----></defs><rect data-v-fde0c5aa="" fill="#198754" x="0" y="0" width="300px" height="300px" class="logo-background-square"></rect><defs data-v-fde0c5aa=""><!----></defs><g data-v-fde0c5aa="" id="12970208-ff3c-4352-a2b0-ca0e22911584" fill="#FFFFFF" transform="matrix(5.056309089562099,0,0,5.056309089562099,41.06182495100117,102.92576025446513)"><path d="M4.27 8.54L1.96 2.80L-0.21 2.80L3.99 12.95L7.14 6.65L10.29 12.95L14.49 2.80L12.32 2.80L10.01 8.54L7.14 2.59ZM14.78 8.15C14.98 8.01 15.28 7.87 15.69 7.73C16.09 7.59 16.50 7.52 16.91 7.52C17.77 7.52 18.20 7.80 18.20 8.37L18.20 9.02C17.68 8.75 17.01 8.61 16.18 8.61C15.91 8.61 15.64 8.65 15.37 8.72C15.09 8.80 14.82 8.91 14.55 9.07C14.29 9.23 14.07 9.46 13.90 9.75C13.73 10.04 13.65 10.39 13.65 10.78C13.65 11.41 13.88 11.89 14.33 12.23C14.78 12.57 15.41 12.74 16.21 12.74C17.19 12.74 17.85 12.41 18.20 11.75L18.20 12.60L20.09 12.60L20.09 7.98C20.09 7.31 19.81 6.80 19.24 6.46C18.67 6.12 17.89 5.95 16.91 5.95C16.39 5.95 15.89 6.04 15.41 6.22C14.93 6.39 14.54 6.59 14.24 6.80ZM15.55 10.58C15.55 10.08 16.02 9.83 16.94 9.83C17.42 9.83 17.84 9.90 18.20 10.04L18.20 10.08C18.20 10.51 18.06 10.82 17.77 11.03C17.48 11.23 17.10 11.33 16.63 11.33C16.31 11.33 16.04 11.26 15.85 11.13C15.65 11.00 15.55 10.82 15.55 10.58ZM23.32 9.31C23.32 8.82 23.50 8.41 23.85 8.10C24.20 7.79 24.64 7.63 25.17 7.63C25.70 7.63 26.14 7.77 26.50 8.04C26.84 8.32 27.02 8.74 27.02 9.31C27.02 9.88 26.84 10.30 26.50 10.58C26.14 10.85 25.70 10.99 25.17 10.99C24.62 10.99 24.18 10.85 23.84 10.56C23.49 10.28 23.32 9.86 23.32 9.31ZM21.28 13.09C21.41 14.00 21.80 14.71 22.44 15.24C23.09 15.77 23.97 16.03 25.09 16.03C25.62 16.03 26.11 15.97 26.55 15.84C26.99 15.71 27.40 15.52 27.75 15.25C28.11 14.98 28.40 14.60 28.60 14.13C28.81 13.65 28.91 13.09 28.91 12.46L28.91 6.16L27.02 6.16L27.02 7.28C26.50 6.39 25.72 5.95 24.68 5.95C23.76 5.95 22.98 6.24 22.36 6.83C21.73 7.42 21.42 8.25 21.42 9.31C21.42 10.37 21.73 11.20 22.36 11.79C22.98 12.38 23.76 12.67 24.68 12.67C25.72 12.67 26.50 12.23 27.02 11.34L27.02 12.46C27.02 13.09 26.85 13.57 26.52 13.88C26.19 14.19 25.76 14.35 25.23 14.35C24.62 14.35 24.15 14.23 23.80 14C23.45 13.77 23.25 13.46 23.20 13.09ZM35.04 8.62L31.92 8.62C31.99 8.22 32.19 7.91 32.51 7.69C32.83 7.46 33.18 7.35 33.57 7.35C34.43 7.35 34.92 7.77 35.04 8.62ZM31.91 9.87L37.00 9.87C37.02 9.69 37.03 9.49 37.03 9.25C37.03 8.25 36.72 7.44 36.09 6.85C35.47 6.25 34.63 5.95 33.57 5.95C32.50 5.95 31.63 6.27 30.96 6.92C30.29 7.57 29.96 8.39 29.96 9.38C29.96 10.38 30.28 11.19 30.92 11.81C31.56 12.43 32.44 12.74 33.57 12.74C35.21 12.74 36.33 12.10 36.95 10.82L35.15 10.42C34.86 10.99 34.34 11.27 33.57 11.27C32.62 11.27 32.06 10.80 31.91 9.87ZM42.34 8.15L43.30 6.64C42.96 6.22 42.44 6.01 41.75 6.01C41.11 6.01 40.57 6.35 40.11 7.03L40.11 6.16L38.15 6.16L38.15 12.60L40.11 12.60L40.11 9.02C40.11 8.57 40.20 8.26 40.38 8.09C40.57 7.91 40.86 7.83 41.26 7.83C41.68 7.83 42.04 7.93 42.34 8.15Z"></path></g><!----><!----></svg>